<?xml version="1.0" standalone="no"?><svg xmlns="http://www.w3.org/2000/svg" viewBox="0 0 1440 320"><path fill="#0099ff" fill-opacity="0.5" d="M0,256L24,250.7C48,245,96,235,144,234.7C192,235,240,245,288,240C336,235,384,213,432,186.7C480,160,528,128,576,128C624,128,672,160,720,144C768,128,816,64,864,85.3C912,107,960,213,1008,224C1056,235,1104,149,1152,106.7C1200,64,1248,64,1296,58.7C1344,53,1392,43,1416,37.3L1440,32L1440,320L1416,320C1392,320,1344,320,1296,320C1248,320,1200,320,1152,320C1104,320,1056,320,1008,320C960,320,912,320,864,320C816,320,768,320,720,320C672,320,624,320,576,320C528,320,480,320,432,320C384,320,336,320,288,320C240,320,192,320,144,320C96,320,48,320,24,320L0,320Z"></path></svg>