<?xml version="1.0" standalone="no"?><svg xmlns="http://www.w3.org/2000/svg" viewBox="0 0 1440 320"><path fill="#0099ff" fill-opacity="0.5" d="M0,320L24,309.3C48,299,96,277,144,245.3C192,213,240,171,288,149.3C336,128,384,128,432,144C480,160,528,192,576,218.7C624,245,672,267,720,261.3C768,256,816,224,864,213.3C912,203,960,213,1008,192C1056,171,1104,117,1152,122.7C1200,128,1248,192,1296,192C1344,192,1392,128,1416,96L1440,64L1440,0L1416,0C1392,0,1344,0,1296,0C1248,0,1200,0,1152,0C1104,0,1056,0,1008,0C960,0,912,0,864,0C816,0,768,0,720,0C672,0,624,0,576,0C528,0,480,0,432,0C384,0,336,0,288,0C240,0,192,0,144,0C96,0,48,0,24,0L0,0Z"></path></svg>