<?xml version="1.0" standalone="no"?><svg xmlns="http://www.w3.org/2000/svg" viewBox="0 0 1440 320"><path fill="#0099ff" fill-opacity="0.2" d="M0,32L24,42.7C48,53,96,75,144,90.7C192,107,240,117,288,133.3C336,149,384,171,432,176C480,181,528,171,576,186.7C624,203,672,245,720,229.3C768,213,816,139,864,128C912,117,960,171,1008,186.7C1056,203,1104,181,1152,160C1200,139,1248,117,1296,112C1344,107,1392,117,1416,122.7L1440,128L1440,0L1416,0C1392,0,1344,0,1296,0C1248,0,1200,0,1152,0C1104,0,1056,0,1008,0C960,0,912,0,864,0C816,0,768,0,720,0C672,0,624,0,576,0C528,0,480,0,432,0C384,0,336,0,288,0C240,0,192,0,144,0C96,0,48,0,24,0L0,0Z"></path></svg>